<svg width="109" height="30" viewBox="0 0 109 30" fill="none" xmlns="http://www.w3.org/2000/svg">
<path d="M31.5 13.2602V0.989812H34.2287V13.2602H31.5ZM39.0951 13.2602V0.989812H41.8412V13.2602H39.0951ZM33.1337 8.13305V5.76935H39.9989V8.13305H33.1337Z" fill="#06B898"/>
<path d="M44.5432 13.2602V0.989812H47.2719V13.2602H44.5432ZM46.6289 13.2602V10.8965H53.355V13.2602H46.6289ZM46.6289 8.13305V5.85625H52.7467V8.13305H46.6289ZM46.6289 3.33613V0.989812H53.2681V3.33613H46.6289Z" fill="#06B898"/>
<path d="M55.5837 13.2602V0.989812H58.3124V13.2602H55.5837ZM57.6867 13.2602V10.8617H63.7524V13.2602H57.6867Z" fill="#06B898"/>
<path d="M65.6737 13.2602V0.989812H68.4024V13.2602H65.6737ZM67.7767 13.2602V10.8617H73.8424V13.2602H67.7767Z" fill="#06B898"/>
<path d="M80.9419 13.4687C80.0149 13.4687 79.1575 13.3065 78.3696 12.9821C77.5933 12.6577 76.9097 12.2058 76.3187 11.6265C75.7278 11.0471 75.2701 10.3751 74.9457 9.61036C74.6213 8.83405 74.4591 7.9998 74.4591 7.10762C74.4591 6.20385 74.6213 5.36961 74.9457 4.60488C75.2701 3.84015 75.722 3.17392 76.3014 2.60616C76.8807 2.02683 77.5585 1.58074 78.3348 1.26789C79.1227 0.943465 79.9802 0.78125 80.9071 0.78125C81.8225 0.78125 82.6683 0.943465 83.4446 1.26789C84.2325 1.58074 84.9161 2.02683 85.4955 2.60616C86.0864 3.17392 86.5441 3.84595 86.8685 4.62226C87.1929 5.38699 87.3551 6.22123 87.3551 7.125C87.3551 8.01718 87.1929 8.85143 86.8685 9.62774C86.5441 10.3925 86.0922 11.0645 85.5128 11.6438C84.9335 12.2116 84.2499 12.6577 83.462 12.9821C82.6857 13.3065 81.8456 13.4687 80.9419 13.4687ZM80.9071 10.9834C81.6371 10.9834 82.2743 10.8212 82.8189 10.4967C83.3751 10.1723 83.8038 9.72043 84.1051 9.1411C84.4063 8.55017 84.5569 7.87235 84.5569 7.10762C84.5569 6.52828 84.47 6.00688 84.2962 5.54341C84.1224 5.06835 83.8733 4.66281 83.5489 4.3268C83.2245 3.9792 82.8363 3.71849 82.3844 3.54469C81.9441 3.3593 81.4517 3.26661 80.9071 3.26661C80.1771 3.26661 79.5341 3.42882 78.9779 3.75325C78.4333 4.0661 78.0104 4.51219 77.7092 5.09152C77.4079 5.65927 77.2573 6.33131 77.2573 7.10762C77.2573 7.68696 77.3442 8.21415 77.518 8.68921C77.6918 9.16427 77.9351 9.5756 78.2479 9.9232C78.5724 10.2592 78.9605 10.5199 79.4124 10.7053C79.8643 10.8907 80.3625 10.9834 80.9071 10.9834Z" fill="#06B898"/>
<path d="M31.5 29.0102V16.7398H33.4466L38.2783 24.2654H37.2876L42.1019 16.7398H44.0658V29.0102H41.3372V21.3455L41.8238 21.4672L38.678 26.3684H36.8705L33.742 21.4672L34.2113 21.3455V29.0102H31.5Z" fill="#0A213C"/>
<path d="M46.7667 29.0102V16.7398H49.4954V29.0102H46.7667Z" fill="#0A213C"/>
<path d="M54.2917 23.9526V21.9365H56.8814C57.426 21.9365 57.8431 21.7974 58.1327 21.5193C58.434 21.2413 58.5846 20.8647 58.5846 20.3896C58.5846 19.9493 58.4398 19.5844 58.1501 19.2947C57.8605 19.005 57.4433 18.8602 56.8988 18.8602H54.2917V16.7398H57.2116C58.0227 16.7398 58.7353 16.8962 59.3494 17.2091C59.9635 17.5103 60.4443 17.9332 60.7919 18.4778C61.1395 19.0224 61.3133 19.6481 61.3133 20.3549C61.3133 21.0733 61.1395 21.7047 60.7919 22.2493C60.4443 22.7823 59.9577 23.1994 59.332 23.5007C58.7063 23.8019 57.9705 23.9526 57.1247 23.9526H54.2917ZM52.2061 29.0102V16.7398H54.9348V29.0102H52.2061ZM58.8801 29.0102L55.0565 23.7266L57.5592 23.0488L62.1128 29.0102H58.8801Z" fill="#0A213C"/>
<path d="M65.7395 23.9526V21.9365H68.3292C68.8738 21.9365 69.2909 21.7974 69.5806 21.5193C69.8818 21.2413 70.0324 20.8647 70.0324 20.3896C70.0324 19.9493 69.8876 19.5844 69.5979 19.2947C69.3083 19.005 68.8911 18.8602 68.3466 18.8602H65.7395V16.7398H68.6594C69.4705 16.7398 70.1831 16.8962 70.7972 17.2091C71.4113 17.5103 71.8921 17.9332 72.2397 18.4778C72.5873 19.0224 72.7611 19.6481 72.7611 20.3549C72.7611 21.0733 72.5873 21.7047 72.2397 22.2493C71.8921 22.7823 71.4055 23.1994 70.7798 23.5007C70.1541 23.8019 69.4183 23.9526 68.5725 23.9526H65.7395ZM63.6539 29.0102V16.7398H66.3826V29.0102H63.6539ZM70.3279 29.0102L66.5043 23.7266L69.007 23.0488L73.5606 29.0102H70.3279Z" fill="#0A213C"/>
<path d="M80.891 29.2187C79.964 29.2187 79.1066 29.0565 78.3187 28.7321C77.5424 28.4077 76.8588 27.9558 76.2678 27.3764C75.6769 26.7971 75.2192 26.1251 74.8948 25.3604C74.5704 24.584 74.4082 23.7498 74.4082 22.8576C74.4082 21.9538 74.5704 21.1196 74.8948 20.3549C75.2192 19.5901 75.6711 18.9239 76.2505 18.3562C76.8298 17.7768 77.5076 17.3307 78.2839 17.0179C79.0718 16.6935 79.9293 16.5312 80.8562 16.5312C81.7715 16.5312 82.6174 16.6935 83.3937 17.0179C84.1816 17.3307 84.8652 17.7768 85.4445 18.3562C86.0355 18.9239 86.4931 19.5959 86.8176 20.3723C87.142 21.137 87.3042 21.9712 87.3042 22.875C87.3042 23.7672 87.142 24.6014 86.8176 25.3777C86.4931 26.1425 86.0413 26.8145 85.4619 27.3938C84.8826 27.9616 84.199 28.4077 83.4111 28.7321C82.6348 29.0565 81.7947 29.2187 80.891 29.2187ZM80.8562 26.7334C81.5862 26.7334 82.2234 26.5712 82.768 26.2467C83.3242 25.9223 83.7529 25.4704 84.0541 24.8911C84.3554 24.3002 84.506 23.6223 84.506 22.8576C84.506 22.2783 84.4191 21.7569 84.2453 21.2934C84.0715 20.8183 83.8224 20.4128 83.498 20.0768C83.1735 19.7292 82.7854 19.4685 82.3335 19.2947C81.8932 19.1093 81.4008 19.0166 80.8562 19.0166C80.1262 19.0166 79.4832 19.1788 78.927 19.5032C78.3824 19.8161 77.9595 20.2622 77.6582 20.8415C77.357 21.4093 77.2064 22.0813 77.2064 22.8576C77.2064 23.4369 77.2933 23.9641 77.4671 24.4392C77.6409 24.9143 77.8842 25.3256 78.197 25.6732C78.5215 26.0092 78.9096 26.2699 79.3615 26.4553C79.8134 26.6407 80.3116 26.7334 80.8562 26.7334Z" fill="#0A213C"/>
<path d="M91.4696 23.9526V21.9365H94.0593C94.6038 21.9365 95.021 21.7974 95.3106 21.5193C95.6119 21.2413 95.7625 20.8647 95.7625 20.3896C95.7625 19.9493 95.6177 19.5844 95.328 19.2947C95.0383 19.005 94.6212 18.8602 94.0766 18.8602H91.4696V16.7398H94.3895C95.2006 16.7398 95.9131 16.8962 96.5272 17.2091C97.1413 17.5103 97.6222 17.9332 97.9698 18.4778C98.3174 19.0224 98.4912 19.6481 98.4912 20.3549C98.4912 21.0733 98.3174 21.7047 97.9698 22.2493C97.6222 22.7823 97.1355 23.1994 96.5099 23.5007C95.8842 23.8019 95.1484 23.9526 94.3026 23.9526H91.4696ZM89.384 29.0102V16.7398H92.1127V29.0102H89.384ZM96.058 29.0102L92.2343 23.7266L94.7371 23.0488L99.2907 29.0102H96.058Z" fill="#0A213C"/>
<path d="M104.211 29.2014C103.203 29.2014 102.334 29.0391 101.604 28.7147C100.885 28.3787 100.225 27.8747 99.6225 27.2026L101.395 25.4473C101.789 25.8991 102.224 26.2525 102.699 26.5074C103.185 26.7508 103.747 26.8724 104.385 26.8724C104.964 26.8724 105.41 26.7681 105.723 26.5596C106.047 26.351 106.21 26.0613 106.21 25.6906C106.21 25.3546 106.105 25.0823 105.897 24.8737C105.688 24.6651 105.41 24.4856 105.063 24.3349C104.726 24.1843 104.35 24.0395 103.933 23.9004C103.527 23.7614 103.122 23.605 102.716 23.4312C102.311 23.2458 101.934 23.0198 101.586 22.7533C101.25 22.4752 100.978 22.1334 100.77 21.7279C100.561 21.3108 100.457 20.7894 100.457 20.1637C100.457 19.4106 100.636 18.7617 100.996 18.2171C101.366 17.6725 101.876 17.2612 102.525 16.9831C103.174 16.6935 103.921 16.5486 104.767 16.5486C105.624 16.5486 106.407 16.6993 107.113 17.0005C107.832 17.3018 108.423 17.7131 108.886 18.2345L107.113 19.9899C106.743 19.6075 106.366 19.3237 105.984 19.1383C105.613 18.9529 105.19 18.8602 104.715 18.8602C104.24 18.8602 103.863 18.9529 103.585 19.1383C103.307 19.3121 103.168 19.567 103.168 19.903C103.168 20.2158 103.272 20.4707 103.481 20.6677C103.689 20.8531 103.962 21.0153 104.298 21.1544C104.645 21.2934 105.022 21.4324 105.427 21.5715C105.845 21.7105 106.256 21.8727 106.661 22.0581C107.067 22.2435 107.438 22.481 107.774 22.7707C108.121 23.0488 108.4 23.408 108.608 23.8483C108.817 24.277 108.921 24.81 108.921 25.4473C108.921 26.6175 108.504 27.5387 107.67 28.2107C106.835 28.8711 105.682 29.2014 104.211 29.2014Z" fill="#0A213C"/>
<path fill-rule="evenodd" clip-rule="evenodd" d="M0.875 1C0.391751 1 0 1.39175 0 1.875V13.25H6.125V12.375V6.25H11.375V12.375H16.625V6.25H21.875V12.375V13.25H28V1.875C28 1.39175 27.6082 1 27.125 1H0.875Z" fill="#06B898"/>
<path fill-rule="evenodd" clip-rule="evenodd" d="M0 16.75V28.125C0 28.6082 0.391751 29 0.875 29H27.125C27.6082 29 28 28.6082 28 28.125V16.75H21.875V17.625V23.75H16.625V17.625H11.375V23.75H6.125L6.125 17.625V16.75H0Z" fill="#0A213C"/>
</svg>
